<?xml version="1.0" encoding="utf-8"?>
<!-- Generator: Adobe Illustrator 21.1.0, SVG Export Plug-In . SVG Version: 6.00 Build 0)  -->
<svg version="1.1" id="Layer_1" xmlns="http://www.w3.org/2000/svg" xmlns:xlink="http://www.w3.org/1999/xlink" x="0px" y="0px"
	 viewBox="0 0 40 40" style="enable-background:new 0 0 40 40;" xml:space="preserve">
<style type="text/css">
	.st0{fill:#475993;}
</style>
<path id="facebook" class="st0" d="M20.1,0.2c4.7,0,9.4,0.1,14.1,0c2.9-0.1,5.9,2,5.9,5.9c-0.1,8.5,0,17,0,25.5c0,1.2,0,2.3-0.1,3.5
	c-0.2,2.6-2.4,4.7-5,4.8c-2.8,0.1-5.5,0-8.3,0c-0.4,0-0.6-0.1-0.6-0.6c0-4.3,0-8.7,0-13c0-0.5,0.2-0.6,0.6-0.6c1.3,0,2.6,0,3.9,0
	c0.9,0,1.2-0.2,1.3-1.1c0.2-1.4,0.4-2.8,0.5-4.2c0.1-0.7-0.3-1.1-1.1-1.1c-1.5,0-3,0-4.5,0c-0.6,0-0.8-0.1-0.7-0.7
	c0-1.1,0-2.3,0-3.4c0-1.7,0.8-2.5,2.5-2.6c0.8,0,1.6,0,2.4,0c0.9,0,1.2-0.3,1.2-1.1c0-1.1,0-2.3,0-3.4c0-0.6-0.2-1-0.8-1
	c-1.8,0-3.6-0.2-5.3,0.1c-3.5,0.6-5.7,3-6,6.5c-0.1,1.7-0.1,3.3-0.1,5c0,0.5-0.2,0.7-0.7,0.7c-0.9,0-1.8,0-2.7,0
	c-0.8,0-1.1,0.3-1.1,1.1c0,1.3,0,2.7,0,4c0,0.8,0.3,1.1,1.1,1.1c1,0,1.9,0,2.9,0c0.4,0,0.6,0.1,0.6,0.6C20,30.6,20,35,20,39.3
	c0,0.4-0.2,0.5-0.6,0.5c-4.7,0-9.5,0-14.2,0c-2.8,0-5-2.4-5-5.3c0-9.7,0-19.4,0-29.1c0-2.9,2.3-5.2,5.3-5.2
	C10.4,0.2,15.2,0.2,20.1,0.2z"/>
</svg>
