<?xml version="1.0" encoding="utf-8"?>
<!-- Generator: Adobe Illustrator 21.1.0, SVG Export Plug-In . SVG Version: 6.00 Build 0)  -->
<svg version="1.1" xmlns="http://www.w3.org/2000/svg" xmlns:xlink="http://www.w3.org/1999/xlink" x="0px" y="0px"
	 viewBox="0 0 40 40" style="enable-background:new 0 0 40 40;" xml:space="preserve">
<style type="text/css">
	.st0{fill:#717171;}
</style>
<g id="instagram">
	<path class="st0" d="M40.1,20.1c0,4.4,0,8.9,0,13.3c0,2.8-1.8,5.6-4.8,6.5c-0.6,0.2-1.1,0.3-1.7,0.3c-9,0-18,0.1-27,0.1
		c-3.6,0-6.6-3-6.6-6.6c0-9,0-18,0-27C0,3,3,0,6.6,0c9,0,17.9,0,26.9,0c3.7,0,6.6,3,6.7,6.7C40.2,11.1,40.2,15.6,40.1,20.1
		C40.2,20.1,40.2,20.1,40.1,20.1z M20,34.6C20,34.6,20,34.6,20,34.6c2.5,0,5.1,0.1,7.6,0c0.7,0,1.5-0.1,2.1-0.3
		c2.9-0.9,4.8-3.5,4.8-6.5c0-5.2,0-10.3,0-15.5c0-3.6-3-6.7-6.7-6.7c-5.2,0-10.4,0-15.6,0c-3.7,0-6.7,3-6.7,6.6c0,5.2,0,10.3,0,15.5
		c0,3.9,3.1,6.8,7,6.8C15.1,34.6,17.5,34.6,20,34.6z"/>
	<path class="st0" d="M32.9,20c0,2.5,0,5,0,7.5c0,2.5-1.5,4.4-3.8,5.1c-0.5,0.1-1,0.2-1.5,0.2c-5,0-10,0-14.9,0
		c-3,0-5.3-2.3-5.3-5.3c0-5,0-10,0-15c0-3,2.3-5.3,5.3-5.3c5,0,10,0,15,0c3.1,0,5.3,2.3,5.3,5.4C32.9,15.1,32.9,17.6,32.9,20
		C32.9,20,32.9,20,32.9,20z M20.1,29.4c5.2,0,9.3-4.1,9.3-9.2c0-5.2-4.1-9.4-9.3-9.4c-5.2,0-9.3,4.2-9.3,9.3
		C10.8,25.2,14.9,29.4,20.1,29.4z M30.7,11c0-0.8-0.6-1.5-1.5-1.5c-0.8,0-1.5,0.6-1.5,1.4c0,0.8,0.6,1.5,1.5,1.5
		C30.1,12.5,30.7,11.8,30.7,11z"/>
	<path class="st0" d="M27.5,20.1c0,4.1-3.3,7.4-7.4,7.4c-4.1,0-7.4-3.3-7.4-7.4c0-4.1,3.3-7.4,7.4-7.4C24.2,12.7,27.5,16,27.5,20.1z
		"/>
</g>
</svg>
