<?xml version="1.0" encoding="utf-8"?>
<!-- Generator: Adobe Illustrator 21.1.0, SVG Export Plug-In . SVG Version: 6.00 Build 0)  -->
<svg version="1.1" id="Layer_1" xmlns="http://www.w3.org/2000/svg" xmlns:xlink="http://www.w3.org/1999/xlink" x="0px" y="0px"
	 viewBox="0 0 25.2 35" style="enable-background:new 0 0 25.2 35;" xml:space="preserve">
<path id="location" d="M11.7,0c0.6,0,1.2,0,1.8,0c0,0,0.1,0,0.1,0c1.1,0.1,2.2,0.3,3.2,0.6c5.8,1.9,9.6,7.7,8.2,14.5
	c-0.4,1.8-1.1,3.5-1.9,5.2c-1.4,3-3.1,5.7-5.1,8.4c-1.6,2.2-3.3,4.3-5.3,6.2c0,0-0.1,0,0,0.1c0,0,0,0-0.1,0c0-0.1-0.1-0.1-0.1-0.1
	c-0.4-0.3-0.7-0.7-1-1.1C8.9,31,6.6,28,4.6,24.7C3.2,22.6,2,20.3,1.2,18c-0.5-1.5-0.9-2.9-1.1-4.5c0-0.1,0-0.2,0-0.3
	c0-0.5,0-1,0-1.4c0.1,0,0-0.1,0-0.1c0-0.5,0.1-1.1,0.2-1.6c0.4-2.2,1.4-4.1,2.8-5.7C5.2,1.9,7.9,0.6,11,0.1
	C11.2,0.1,11.5,0.1,11.7,0z M17.4,12.4c0-0.7-0.1-1.3-0.4-1.9c-1.2-2.6-4.4-3.5-6.9-2c-2.2,1.3-2.9,4.1-1.6,6.3
	c1,1.7,2.9,2.5,4.9,2.2C15.7,16.6,17.4,14.6,17.4,12.4z"/>
</svg>
