<?xml version="1.0" encoding="utf-8"?>
<!-- Generator: Adobe Illustrator 21.1.0, SVG Export Plug-In . SVG Version: 6.00 Build 0)  -->
<svg version="1.1" id="Layer_1" xmlns="http://www.w3.org/2000/svg" xmlns:xlink="http://www.w3.org/1999/xlink" x="0px" y="0px"
	 viewBox="0 0 842 364" style="enable-background:new 0 0 842 364;" xml:space="preserve">
<style type="text/css">
	.st0{fill:#FFFFFF;}
</style>
<g id="silhouette">
	<path class="st0" d="M780.7,140.1c2.4,24.2-6.9,48.7-12.9,71.8c-3.1,12-7.2,24.2-9,36.4c-1.6,10.8,0.4,21.2,1.7,31.9
		c7.4-9.3,15.5-18.7,26.8-23.3c-11.7,10.6-27.3,20.3-23.2,37.9c4.3,18,11.2,35.4,15,53.5c-2.4,0.8-18.4-50.4-20.4-56.3
		c-6.2,9.4-9.3,19.5-17.6,27.7c-8,8-18,13.5-28.6,17.1c-13.5,4.6-28,6.5-42,8.8c-15.6,2.6-32.8,7.4-48.7,6.2
		c46.2-7.1,111.8-11.9,133.1-61.3c4.2-9.8-1.3-21.6-1.3-32.4c-0.1-13.5,2.6-26.8,6.4-39.7C767.7,192.2,777.3,167.3,780.7,140.1z"/>
	<path class="st0" d="M817.2,25.6c0.7,2.4-1.3,6.1-4.1,7c-7.5,2.4-26.8,11-44.1,25.9c-20.6,17.8-11.4,24.2-27.6,34
		c-15.1,9.1-33.1,10.8-48,20.9c-5.6,3.8-12,8.4-13.9,15.3c-2.7,10.1,4.6,13.7,9.8,20.8c-18-5.5-13.2-26.1-2.3-35.4
		c14.4-12.4,34.6-17.1,51-26c15.7-8.6,16.9-27.6,31.4-36.1c29.7-17.4,33.7-19.1,42.5-21.4C813.4,30.1,815.7,28.5,817.2,25.6z"/>
	<path class="st0" d="M821.8,298c5.2-15.1,12.8-31.2,14.6-47.1s-5-31.9-9.7-46.7c-4.6-14.6-11.6-30.9-10.9-46.5
		c0.7-14.4,9.1-29.2,18-40.2c-6.2,13.7-15.2,29.4-14.1,45c1.1,15.4,8.4,31.4,13.3,45.9c5.2,15.5,9.5,30.2,6.3,46.7
		C838.3,260.1,824.6,299.1,821.8,298z"/>
	<path class="st0" d="M807.4,93.1c-18.5,12.1-51.8-7.4-63.6,16.1c-5.6,11.1-7.1,26.4-9.9,38.5c-3.1,13.2-3.1,25.1-4.2,38.5
		c-3.4-14-2.7-27.5,0.6-41.4c2.9-12.1,3.6-28.1,9.5-39.1C753.2,80.9,787.2,101.9,807.4,93.1z"/>
	<path class="st0" d="M682.3,293.7c15.4-10.3,32.2-19.1,42.6-34.9c9.5-14.4,10.4-33.5,23.3-45.7c-3.4,9-7.9,17.1-10.4,26.4
		c-2.4,9-4,16.9-9.7,24.6C719.1,276.5,697.4,291.5,682.3,293.7z"/>
	<path class="st0" d="M832.7,22.7c-0.2,1.4-2.2,6.1-1.7,8.8c2.5,11.9-1.4,21.4-8,28c-1.6,1.6-5.7,5-9.6,5c-4.6,0-8.2-3.5-9.9-5.2
		c-1.8-1.8-6.6,9.9-9.2,15.1c-1.2-4.8,3.1-13.3,7.2-17.4c3.4-3.4,8.6,6.6,13.5,5c6.5-2.2,12.8-14.1,13.9-18
		c1.9-6.2-2.6-11.1,0.5-17.1C830.4,25,831.7,23.6,832.7,22.7z"/>
	<path class="st0" d="M742.1,198.6c-0.8-12.6-4.1-26.9-0.1-39.1c3.3-10.2,9.9-18.9,13.6-28.9c2.7,1.7-8.1,28.1-9.3,33.7
		C745.4,168.9,743.6,198.5,742.1,198.6z"/>
</g>
<g id="talle-fino">
	<g>
		<path class="st0" d="M426.3,204.1c-8.6,13.9-27.6,23.3-43.4,25.3c-16.2,2.1-23-2.8-24.6-18.8c-15.9,12.3-46.3,31.1-46.3-2.3
			c-9.2,7.8-19.8,17.5-32.2,19.5c-13.4,2.2-15.7-8.5-17.2-19.4c-8.1,7.5-19.6,18.3-31.3,19.4c-12.7,1.2-16.1-9.9-18.5-20.1
			c-6.3,5.7-30.8,31.7-33.9,12.9c-2.7-16.1,16.4-34,29.1-40.7c5.6-3,15.1-7.1,20.9-2.2c4.7,3.9,2,3.5-0.4,8.2
			c-2.1,4.3-4.7,7.9-5.9,12.6c-4.8,18.3,4.8,30.6,22.7,20.8c18.3-10,19.6-25.1,25.8-43.1c6.4-18.6,15.9-35.9,26.7-52.3
			c4.3-6.5,22.8-36.7,33.1-22.3c9.6,13.6-13.1,40.4-21.1,50c-11.6,13.8-28.6,23.4-34.8,41c-5.2,14.7-6.6,39.8,14.9,27.4
			c8.2-4.7,17.6-9.3,21.9-18.1s5.5-19.5,8.9-28.7c6.9-18.8,16.7-36.5,27.7-53.2c5.3-8,30.5-36.1,32.2-12.1c1.3,18-17,38.8-28.6,50.9
			c-12.6,13.1-26.9,21.6-30.6,40.7c-1.1,5.5-3.2,17.3,0.9,22c5,5.8,13.5,0.8,18.9-2c8.2-4.3,15.3-10.3,20-18.4
			c4.6-7.9,6.6-16.4,13.7-22.8c5.1-4.6,15.6-11.6,22.1-5.7c6.9,6.3-0.1,17.3-5.1,22.3c-3.2,3.1-7.2,4.9-11.1,6.9
			c-2,1-7.9,2.4-9.4,3.8c-4.6,4.4-3.1,14.9,2.1,18.7C387.8,235.2,423.9,201.7,426.3,204.1z M285.4,170.5c8.6-3.8,52.8-61.1,39-67.1
			c-8.8-3.8-20.6,26.1-23.3,31.9c-3.6,7.8-7,15.6-10.5,23.5C289.7,161.1,285.5,172.2,285.4,170.5z M333.1,171
			c10.2-3.8,47.7-54.6,41.8-64.7c-6.4-11-18.6,16.3-21,20.7C346.3,141.1,339.5,156.3,333.1,171z M216.5,180.9
			c-9.6,3.4-17.1,8.2-22.9,16.8c-2.1,3.2-10.8,17.5-4.5,21.2c6,3.5,16.8-9.1,19.3-12.9C213.2,198.6,215.2,189.6,216.5,180.9z
			 M369.6,202.2c14.2-3,31.7-24.6,22.6-26.8C385.4,173.7,374.3,189.3,369.6,202.2z"/>
		<g>
			<path class="st0" d="M424.9,204.3c-9.1,14.1-26.3,22.9-42.7,24.7c-5.6,0.6-12.2,0.6-16.6-3.5c-4.2-3.9-5.2-10-5.8-15.3
				c-0.1-0.7-2.5,0.3-2.8,0.5c-7.9,6.1-17.1,12.9-27.1,15.3c-12.4,2.9-16.4-7.6-16.5-18c0-0.6-2.5,0.3-2.8,0.5
				c-9,7.7-22.2,21.1-35.1,18.9c-9.1-1.5-10.5-11.9-11.5-19.4c-0.1-0.7-2.5,0.3-2.8,0.5c-8.5,7.9-21.2,21.3-34.1,18.5
				c-8.7-1.9-11.3-12.3-13-19.7c-0.2-0.7-2.5,0.3-2.8,0.5c-5,4.6-25.4,27.1-30.5,15.1c-3.6-8.5,2-18.8,7.1-25.4
				c6-7.7,14-14.5,22.9-18.7c4.1-2,9.6-4.1,14.1-2.2c1.6,0.7,5.1,2.8,4.7,5c-0.2,1.3-2.2,3.3-2.8,4.4c-1.5,2.7-3.1,5.4-4.3,8.2
				c-3,6.7-4.5,16.2-0.7,23c7.4,13.1,26.4,2.4,33.8-4.9c6.2-6,9.5-13.9,12.1-22c3.2-9.9,6.2-19.8,10.4-29.4
				c7.5-17,17.2-33.6,28.4-48.4c3.5-4.6,12-16.7,19-13.7c6.9,2.9,6.6,12.3,4.8,18.1c-4.4,14.9-16.3,29.2-27.1,40.2
				c-13.1,13.3-28.1,24-32.1,43.4c-1.8,8.6-2.9,25.5,10.4,23.1c7.4-1.3,14.9-6.5,20.9-10.7c8.6-6,12.2-13.9,14.8-23.8
				c3.1-11.7,6.7-22.8,11.9-33.8c5.3-11.2,11.6-22.1,18.3-32.5c3.5-5.5,23.3-31.9,29.7-21.1c4.4,7.5,0.5,18.7-2.9,25.7
				c-4.7,9.6-11.5,18-18.6,25.9c-12.4,13.6-30.3,24.8-35.3,43.5c-1.9,6.8-4.4,17.5-0.7,23.9c3.5,6,11,4.2,16.2,1.9
				c8.2-3.5,16-8.6,21.8-15.4c7.1-8.4,9.1-20,16.8-27.9c4.2-4.3,12.1-10.6,18.4-7.7c5.2,2.4,5.7,8.1,4,12.9
				c-4,11.3-14.2,15.3-24.3,19.5c-6,2.5-7.1,9.3-5,15.1c2,5.6,6.8,8.1,12.5,7.9c12.2-0.4,24-8.6,33.8-15.1c2.4-1.6,4.7-3.2,7.1-4.8
				c0.8-0.5,1.6-1.1,2.5-1.6c0.4-0.2,0.8-0.5,1.2-0.7c1.1-0.6,0.7-0.1,0.2-0.4c0.7,0.4,3.1-0.8,2.7-1c-1.9-1.2-5.6,1.5-7.1,2.5
				c-5.3,3.3-10.3,7-15.6,10.3c-6.7,4.1-14.6,9.2-22.7,9.6c-8.9,0.5-14.7-8.5-12.1-16.9c1.5-4.9,6.5-5.1,10.6-6.9
				c4.6-2,9.3-4.5,12.8-8.1c4.7-4.9,10.6-14.4,5.4-20.9c-4.9-6-13.9-2.7-19.3,0.6c-8.8,5.3-12.9,13.1-17.2,22.1
				c-5.4,11.3-13.5,19.1-24.6,24.9c-4,2.1-9.4,4.7-13.4,1.4c-1.8-1.4-2.6-3.6-3-5.8c-0.8-4.6-0.1-9.5,0.6-14
				c1.9-11.1,7-19.9,14.8-27.9c7.1-7.2,14.8-13.8,21.6-21.2c6.7-7.4,13.1-15.3,17.9-24.2c4-7.5,7.9-18,4.6-26.5
				c-4.3-11.4-19.1,1.2-23.7,5.7c-13.7,13.3-23.1,31.5-31.1,48.5c-5.3,11.3-8.7,22.6-12,34.6c-1.5,5.5-3.3,11.2-7.1,15.6
				c-4,4.8-9.4,7.9-14.7,10.9c-4.1,2.4-10.1,6.9-14.9,4c-2.6-1.5-3.6-4.6-4-7.4c-1.2-7.1,0.4-15,2.7-21.7
				c6.6-18.8,25.6-30,37.9-44.9c5.3-6.5,10.5-13.2,14.6-20.6c3.4-6.1,7.1-13.8,5.7-21c-2.7-14.5-16.8-8.2-23.7-1.3
				c-11.6,11.8-20.5,27.7-28.2,42.1c-6,11.1-11,22.7-14.7,34.8c-2.7,8.5-4.9,17.5-9.9,25c-5.5,8.2-20.4,20.8-30.2,12.9
				c-6.9-5.6-5.6-17.4-2.7-24.7c1.8-4.5,4.5-8.6,6.9-12.7c2.1-3.6-1.9-6.2-5.3-7.2c-6.5-1.9-14.1,1.6-19.8,4.6
				c-13.5,7.2-32.4,23.9-29.5,41.1c2.4,13.5,17.5,3.4,23.4-1.4c4.7-3.7,8.9-8,13.3-12c-0.9,0.2-1.8,0.3-2.8,0.5
				c2.5,10.4,6.7,21.4,19.3,20.3c13.3-1.2,24-11.5,33.3-20.1c-0.9,0.2-1.8,0.3-2.8,0.5c0.8,5.5,1.5,11.9,5.4,16.2
				c3.3,3.6,8.1,4,12.7,3.4c13.5-2,24.2-11.6,34.1-20.2c-0.9,0.2-1.8,0.3-2.8,0.5c0.1,5.8,0.7,13.2,5.9,16.9
				c3.6,2.5,8.3,2.3,12.4,1.4c11.4-2.4,21.7-9.7,30.7-16.6c-0.9,0.2-1.8,0.3-2.8,0.5c0.7,6.4,2.3,13.8,8.4,17.3
				c5.5,3.1,12.8,2.4,18.8,1.5c16.7-2.6,34.4-11.4,43.8-25.9C427.9,203.5,425.4,203.6,424.9,204.3z"/>
			<path class="st0" d="M286.2,170.7c7.2-3.4,13-12.3,17.7-18.3c7.9-10.1,15.7-20.9,21.1-32.6c1.8-3.9,7.3-16.2-0.7-17.2
				c-9.9-1.2-16.5,15.4-19.7,22.1c-3.6,7.5-6.8,15.1-10.2,22.6c-2.2,4.9-4.4,9.8-6.4,14.8c-0.7,1.7-1.4,3.5-2.1,5.2
				c-0.3,0.7-1.6,3.3-1.3,3.2c0.8-0.1,1.5-0.2,2.3-0.2c0-0.1,0-0.1-0.1-0.2c-0.2-0.6-3.1,0.2-2.9,0.8c0,0.1,0,0.1,0.1,0.2
				c0.2,0.6,2-0.1,2.3-0.2c2.8-1.1,4.2-8.4,5.2-10.9c3.5-8.6,7.5-17,11.3-25.5c4.3-9.6,8.3-21.3,16.1-28.7c3.3-3.1,6.5-1.5,6.7,2.7
				c0.2,3.9-1.7,8-3.3,11.5c-4.7,10.2-11.2,19.6-17.9,28.6c-3.6,4.9-7.4,9.6-11.5,14.1c-2.3,2.6-5.1,6.1-8.3,7.7
				C282.9,171.2,285.6,171,286.2,170.7z"/>
			<path class="st0" d="M334,171.2c7.3-3,13.1-11.4,17.8-17.3c7.7-9.6,14.9-19.9,20.5-30.9c2.1-4.1,8.9-16.6,1.5-19.5
				c-7.5-3-14.1,10.3-16.7,14.9c-9.4,17.2-17.6,35-25.4,52.9c-0.2,0.4,2.5,0.2,2.9-0.5c6.8-15.5,14-30.6,21.7-45.7
				c1.9-3.8,10.4-23.2,15.7-20.2c6,3.4-1,15.7-3,19.4c-4.8,9.3-10.8,18-17.1,26.3c-3.5,4.6-7.2,9.1-11.2,13.3
				c-2.4,2.5-5.1,5.6-8.3,6.9C330.6,171.6,333.3,171.4,334,171.2z"/>
			<path class="st0" d="M216,180.7c-10,3.7-18.6,9.2-24.5,18.3c-2.6,4.1-10.4,16.6-3.9,20.5c5.9,3.5,14-4.3,17.4-8
				c8.1-8.6,11.1-19.5,12.8-30.9c0-0.3-2.8-0.1-2.9,0.8c-1.4,9.2-3.5,18.8-9.1,26.4c-2.7,3.6-15.8,17.6-17.6,7.3
				c-0.9-5.4,3.3-12.2,6.1-16.6c5.4-8.4,13.3-13.7,22.6-17.2C218.9,180.5,217.1,180.3,216,180.7z"/>
			<path class="st0" d="M369.7,202.6c7.3-1.8,13.8-6.3,18.9-11.7c2.6-2.7,10.1-10.5,6.9-14.8c-2.5-3.5-8.6-0.3-11.1,1.5
				c-7.8,5.8-13,15.9-16.3,24.8c-0.2,0.4,2.6,0.2,2.9-0.5c2.4-6.5,5.7-12.8,10-18.3c1.7-2.1,11.6-12.8,12.2-4.7
				c0.3,4.4-4.6,9.5-7.2,12.3c-4.5,4.7-10.1,9-16.5,10.6C367.8,202.2,368,203,369.7,202.6z"/>
		</g>
	</g>
	<path class="st0" d="M568.7,213.5c-2-2.7-27.5,19.5-38.7,11.9c-3.2-2.1-5.5-6.1-6.3-12.6c-1.3-10.2,2.2-22.4,8.5-30.4
		c6.2-7.8,17.5-10.3,10.4,2.8c-4.9,8.9-12.3,20.9-8.4,31.6c3.9,10.8,13.2,7.3,21.2,2.9c9.1-5.1,16.9-12.1,21.7-21.4
		c4.8-9.1,4-18.7,15.2-21.8c1.5,13.4-9.7,24.1-11.7,36.9c13.2-9.8,24.1-25,36.1-36.3c7.7,5.9-21,48.6,4.3,45.8
		c8.6-1,18.4-9.9,22.9-16.9c5.7-8.7,2.2-17.2,6-26c3-7,12-14,20.7-13.2c2.1,0.2,3.8,0.8,5,1.4c3.4,2.7,5.7,5.6,7.3,8.1
		c10,15.9-0.1,39.9-0.1,39.9s21.1-7,32.2-12.3c2.1-1-7.8,7.1-20.7,13c-5.2,2.4-10.1,3.6-14.3,4.5c0,0-6,5.1-11.2,7.6
		c-5.7,2.7-13.8,6.6-19.3,3.4c-7.3-4.2-5.4-14.1-5.4-21c-8.2,5.6-21.8,17.3-33,14.9c-12-2.6-9.1-21.7-9.1-30.8
		c-9,8.2-17.9,24.4-28.6,30c-2.2,1.2-4.1,2.1-5.4,1.4c-1.4-0.6-1.7-2.5-1.9-3.2C565,218.4,569.5,214.6,568.7,213.5z M656.6,198.9
		c-2.2,11.2,17.2,17.9,19.7,17.3c0.7-0.2,6.3-12.6,7.5-18.8c1.1-5.9-0.1-23.1-9.8-23.2C667.6,174.1,657.4,191.3,656.6,198.9z
		 M674,220.3c-8.1-2.1-14.5-5.4-20.7-11.1c0,6.3-2.4,16.2,4.7,19C663.7,230.5,671.3,224.8,674,220.3z"/>
	<path class="st0" d="M485,182.2c-4.8-0.6-9.7-1.2-14.5-1.8c5.7-4.7,15.2-3.3,17.5-4.2c1.8-0.4,8.9-19.6,12.1-26.2
		c7.3-15.2,17.2-41.4,32.8-50c9.6-5.3,14.5,1.1,14.2,11.1c-0.2,9-5.7,16.7-10.6,23.8c-10.7,15.5-24,28.5-38,41
		c10.6,0,22-1.3,32.3,1.6c0.1,6.2-25.1,3.4-30.1,4.7c-10.4,2.5-12.7,11.9-17.5,21c-11.1,21-21.1,45.2-35.8,64
		c-12,15.4-30.6,25.5-50.5,23.8c-18.2-1.6-31.2-23.7-12.7-35.9c-6.1,12.4-8.4,29.7,9.4,33c13.7,2.5,27.5-6.9,37.1-15.6
		c12-10.9,20.1-24.8,27.7-38.9C467.3,216.6,477.1,199.7,485,182.2z M542,106.1c-9.1-4.9-36.5,54-41.1,62.4
		c6.6,1.6,21.7-21.1,25.1-26C534,131.1,539.5,119.7,542,106.1z"/>
	<path class="st0" d="M567.4,144.1c-0.2,10.6-16.4,10.6-14.3-0.1C554.7,136.5,567.6,135.1,567.4,144.1z"/>
	<path class="st0" d="M271.2,95.3c-10.8,6.4-16.7,6.9-29.5,6.1c-13.1-0.7-25.1-2.8-37.9-5.7c3.4-5.2,20.5-34.8,28.7-20.9
		c-0.3-10.7-15.1-5.4-20.4-1.6c-6.9,4.9-11,12.5-16.8,20c-5.4-1-24.8-4.9-26.5-5.4c-0.8-8.9-6.3-19.4-17.5-23.9
		c-7.9-3.1-17.5-3.5-25.2-0.5c-7.9,3-20.7,13.1-20.7,13.1S83,77.8,72.9,78.1c-10.4,0.3-21.2,0.6-31.4,2.8
		c-39.3,8.8-52.1,53.7-14.3,74.6c7.7,4.3,16.4,6.4,25.2,6.8c3.9,0.2,7.8,0.1,11.5-0.9c4.1-1.1,9.3-2.5,3.9-4.3
		c-3.7-1.2-10.6,1.2-14.9,0.6c-4.6-0.7-9.2-2.1-13.5-3.8c-8-3.1-15.6-7.7-21.7-13.8C1.6,124.3,8.6,104.3,28.6,96
		c21-8.6,46.5-7.3,68.7-6.4c-6.4,12.9-16.2,36.7-15.7,66.4c0.3,15.5,3.4,35.8,10.2,47.4c0.5,0.8,8.1,13.8,8.1,13.8
		c-1.1,1.3-2.1,2.6-3.2,3.8c0,0,0,0,0.1,0c-0.1,0-0.1,0-0.1,0c-5.5,5.9-11.1,11.8-16.6,17.7c2.9-2.2,5.8-4.6,8.9-7.3
		c4.8-4.3,9-8.6,12.5-12.6c2.9,2.9,5.8,5.7,8.7,8.6c0,0-37.6,33.4-60.9,30.3c-9-1.2-15.5-7.2-17.4-16.1
		c-2.4-11.3,4.4-18.9,10.9-27.1c-15,3.3-20.4,27.3-12.8,38.9c9.9,15,31.5,12,46.4,8.1c9.3-2.4,18.2-6.2,26.3-11.2
		c7-4.3,20.8-15.1,20.8-15.1s18.6,4,28.5,0c3.1-0.8,21.2-7.2,18.1-12.4c-12.1,11.9-28.3,13.6-44.2,10c12-16.1,25.4-29.7,35-47.7
		c9.8-18.4,18.5-37.4,27.5-56.2c2.7-5.6,8.3-23.8,13.2-27.7c7,1.3,18.8,3.6,25,4.7C233.9,107.3,276.3,113,271.2,95.3z M138.9,62.9
		c12.1,0,23.6,11.4,24.1,23.2c-16.1-2.5-35.2-5.6-51.4-8.1C117.3,69.5,129.9,62.9,138.9,62.9z M90.9,118.8c3.1-9.3,15-30.1,15-30.1
		s40.3,4,57.1,6.5c-3.7,16.8-10.3,38.8-22.6,62.8c-12.5,24.4-28.2,42-38.6,57C90.4,202.5,77.7,158.4,90.9,118.8z M112.2,225.3
		c-3-1.7-8.5-8.2-8.5-8.2c5.3-6.6,12.6-16.1,20.8-27.9c11.1-15.9,16.6-23.9,22.4-35.4c0,0,7.3-14,13.7-31.1
		c3.4-9.2,5.1-15.5,5.9-18.8c0.8-3.3,1.4-6.1,1.8-8.1c3.3,0.3,6.8,0.7,10.4,1.3c4.6,0.7,9,1.5,13.1,2.4
		C169.8,144.1,146.7,188.9,112.2,225.3z"/>
</g>
<g id="text">
	<path class="st0" d="M25.2,319.8c0-1.7,0.3-3.4,0.9-5.1s1.5-3.2,2.7-4.6c1.2-1.3,2.6-2.4,4.3-3.3c1.7-0.8,3.6-1.2,5.8-1.2
		c2.6,0,4.8,0.6,6.6,1.7s3.2,2.6,4.2,4.5l-3.5,2.4c-0.4-0.9-0.9-1.6-1.4-2.2c-0.6-0.6-1.2-1.1-1.8-1.4c-0.7-0.3-1.4-0.6-2.1-0.7
		c-0.7-0.1-1.4-0.2-2.1-0.2c-1.5,0-2.8,0.3-3.9,0.9c-1.1,0.6-2.1,1.4-2.8,2.4c-0.8,1-1.3,2.1-1.7,3.3c-0.4,1.2-0.6,2.5-0.6,3.7
		c0,1.4,0.2,2.7,0.7,4s1.1,2.4,1.9,3.3c0.8,1,1.8,1.7,2.9,2.3c1.1,0.6,2.3,0.9,3.7,0.9c0.7,0,1.4-0.1,2.1-0.3
		c0.7-0.2,1.4-0.5,2.1-0.8c0.7-0.4,1.3-0.9,1.9-1.5c0.6-0.6,1-1.3,1.4-2.1l3.7,2.1c-0.5,1.1-1.1,2-1.9,2.8c-0.8,0.8-1.8,1.5-2.8,2.1
		s-2.1,1-3.3,1.3s-2.3,0.4-3.4,0.4c-2,0-3.8-0.4-5.5-1.3s-3.1-2-4.3-3.3c-1.2-1.4-2.1-2.9-2.8-4.7C25.5,323.4,25.2,321.6,25.2,319.8
		z"/>
	<path class="st0" d="M75.2,309.7h-9.4v24.4h-4.5v-24.4h-9.5v-4h23.4V309.7z"/>
	<path class="st0" d="M83,334.5c-0.5,0-1.2-0.1-1.9-0.2c-0.7-0.1-1.3-0.3-1.8-0.6l0.4-3.8c0.4,0.2,0.8,0.3,1.4,0.4
		c0.5,0.1,1.1,0.2,1.6,0.2c0.9,0,1.6-0.2,2.2-0.7s1.2-1.4,1.8-2.9l-10.4-21.2h4.8l7.6,16.4l7.2-16.4h4.7l-10,21.6
		c-0.6,1.3-1.2,2.4-1.7,3.3s-1.1,1.6-1.7,2.2s-1.2,1-1.9,1.2C84.6,334.3,83.8,334.5,83,334.5z"/>
	<path class="st0" d="M101.6,330.2h0.6c0.8-0.1,1.5-0.3,2.2-0.7c0.7-0.4,1.2-1.2,1.8-2.4s1-2.8,1.4-5c0.4-2.1,0.7-4.9,1-8.4l0.6-7.9
		h16.1v24.4h4.3v11.2h-4.2v-7.3h-19.7v7.3h-4.1V330.2z M120.8,330.2v-20.5h-7.4l-0.4,4.6c-0.2,2.1-0.4,4-0.6,5.7s-0.5,3.2-0.9,4.5
		c-0.3,1.3-0.7,2.4-1.2,3.3c-0.4,0.9-0.9,1.7-1.4,2.4H120.8z"/>
	<path class="st0" d="M138.2,327.3l15.5-21.5h3.6v28.4h-4.5v-21.1l-15.2,21.1h-3.8v-28.4h4.5v21.5H138.2z"/>
	<path class="st0" d="M178.6,334.2v-10.8H173l-6.5,10.8h-5.1l7-11.3c-0.8-0.3-1.5-0.8-2.2-1.3s-1.3-1.2-1.8-1.9
		c-0.5-0.7-0.9-1.5-1.1-2.4s-0.4-1.8-0.4-2.7c0-1.1,0.2-2.2,0.7-3.3s1-2,1.8-2.8s1.7-1.5,2.8-2s2.3-0.7,3.5-0.7h11.4v28.4
		L178.6,334.2L178.6,334.2z M178.6,309.7h-6.5c-0.6,0-1.2,0.1-1.8,0.4s-1.1,0.6-1.5,1s-0.8,1-1,1.6s-0.4,1.2-0.4,1.9
		s0.1,1.3,0.3,1.9s0.5,1.1,0.9,1.5s0.9,0.8,1.4,1c0.5,0.3,1.1,0.4,1.8,0.4h6.7v-9.7H178.6z"/>
	<path class="st0" d="M204.1,317.8h3l9-12h5.1L211,319.5l11.1,14.7H217l-9.5-12.3h-3.4v12.3h-4.5v-28.4h4.5V317.8z"/>
	<path class="st0" d="M236.8,334.4c-2,0-3.9-0.4-5.5-1.2c-1.7-0.8-3.1-1.9-4.3-3.2c-1.2-1.3-2.1-2.9-2.8-4.6s-1-3.5-1-5.3
		c0-1.9,0.3-3.7,1-5.4c0.7-1.7,1.6-3.3,2.9-4.6c1.2-1.3,2.7-2.4,4.3-3.2c1.7-0.8,3.5-1.2,5.5-1.2s3.9,0.4,5.5,1.3
		c1.7,0.8,3.1,1.9,4.3,3.3s2.1,2.9,2.8,4.6s1,3.5,1,5.3c0,1.9-0.3,3.7-1,5.4c-0.7,1.7-1.6,3.3-2.9,4.6c-1.2,1.3-2.7,2.4-4.3,3.2
		C240.6,334,238.7,334.4,236.8,334.4z M227.8,320c0,1.3,0.2,2.6,0.6,3.9c0.4,1.3,1,2.4,1.8,3.3c0.8,1,1.7,1.7,2.9,2.3
		c1.1,0.6,2.4,0.9,3.8,0.9c1.4,0,2.7-0.3,3.8-0.9s2-1.4,2.8-2.4s1.4-2.1,1.8-3.3c0.4-1.2,0.6-2.5,0.6-3.8c0-1.4-0.2-2.7-0.6-3.9
		c-0.4-1.2-1-2.3-1.8-3.3c-0.8-0.9-1.7-1.7-2.8-2.3c-1.1-0.6-2.3-0.9-3.7-0.9s-2.7,0.3-3.8,0.9s-2.1,1.4-2.8,2.3s-1.4,2.1-1.8,3.3
		C228,317.4,227.8,318.7,227.8,320z"/>
	<path class="st0" d="M255.1,334.2v-28.4H267c1.3,0,2.5,0.3,3.5,0.8c1.1,0.5,2,1.2,2.8,2.1s1.4,1.9,1.8,3s0.7,2.2,0.7,3.4
		c0,1.2-0.2,2.4-0.6,3.5s-1,2.1-1.7,3s-1.6,1.6-2.7,2.1s-2.2,0.8-3.5,0.8h-7.7v9.9h-4.5V334.2z M259.6,320.3h7.4
		c0.6,0,1.2-0.1,1.7-0.4s1-0.6,1.3-1.1c0.4-0.5,0.7-1,0.9-1.7c0.2-0.6,0.3-1.3,0.3-2.1c0-0.8-0.1-1.5-0.4-2.2
		c-0.2-0.6-0.6-1.2-1-1.7s-0.9-0.8-1.5-1.1c-0.5-0.3-1.1-0.4-1.7-0.4h-7.2v10.7H259.6z"/>
	<path class="st0" d="M280.1,334.2v-28.4H292c1.3,0,2.5,0.3,3.5,0.8c1.1,0.5,2,1.2,2.8,2.1s1.4,1.9,1.8,3s0.7,2.2,0.7,3.4
		c0,1.2-0.2,2.4-0.6,3.5s-1,2.1-1.7,3s-1.6,1.6-2.7,2.1s-2.2,0.8-3.5,0.8h-7.7v9.9h-4.5V334.2z M284.6,320.3h7.4
		c0.6,0,1.2-0.1,1.7-0.4s1-0.6,1.3-1.1c0.4-0.5,0.7-1,0.9-1.7c0.2-0.6,0.3-1.3,0.3-2.1c0-0.8-0.1-1.5-0.4-2.2
		c-0.2-0.6-0.6-1.2-1-1.7s-0.9-0.8-1.5-1.1c-0.5-0.3-1.1-0.4-1.7-0.4h-7.2v10.7H284.6z"/>
	<path class="st0" d="M324.6,330.2v4h-19.5v-28.4h19.1v4h-14.6v8.1h12.7v3.7h-12.7v8.7h15V330.2z"/>
	<path class="st0" d="M333.8,317.8h3l9-12h5.1l-10.2,13.7l11.1,14.7h-5.1l-9.5-12.3h-3.4v12.3h-4.5v-28.4h4.5V317.8z"/>
	<path class="st0" d="M376.4,334.2h-21.6v-28.4h4.5v24.4h12.4v-24.4h4.5v24.4h4.3v11.2h-4.2v-7.2H376.4z"/>
	<path class="st0" d="M389.1,327.3l15.5-21.5h3.6v28.4h-4.5v-21.1l-15.2,21.1h-3.8v-28.4h4.5v21.5H389.1z"/>
	<path class="st0" d="M419.2,327.3l15.5-21.5h3.6v28.4h-4.5v-21.1l-15.2,21.1h-3.8v-28.4h4.5v21.5H419.2z"/>
	<path class="st0" d="M464.6,332c-3.9-0.4-6.9-1.6-8.9-3.8c-2.1-2.1-3.1-5-3.1-8.5c0-1.8,0.3-3.4,0.8-4.8s1.3-2.7,2.3-3.8
		c1-1.1,2.3-1.9,3.8-2.6s3.2-1.1,5.2-1.3v-3.6h4.4v3.6c1.9,0.2,3.6,0.6,5,1.3c1.5,0.7,2.7,1.5,3.7,2.6s1.7,2.3,2.2,3.8
		c0.5,1.4,0.8,3,0.8,4.8c0,3.5-1,6.4-3,8.5s-4.9,3.4-8.7,3.7v3.7h-4.4L464.6,332L464.6,332z M464.6,311.4c-5,0.6-7.5,3.3-7.5,8.2
		c0,4.9,2.5,7.7,7.5,8.3V311.4z M469,327.9c4.8-0.6,7.2-3.4,7.2-8.3s-2.4-7.6-7.2-8.2V327.9z"/>
	<path class="st0" d="M489.8,327.3l15.5-21.5h3.6v28.4h-4.5v-21.1L489,334.2h-3.8v-28.4h4.5L489.8,327.3L489.8,327.3z"/>
	<path class="st0" d="M532.2,309.7h-12.3v24.4h-4.5v-28.4h16.8V309.7z"/>
	<path class="st0" d="M540,334.5c-0.5,0-1.2-0.1-1.9-0.2s-1.3-0.3-1.8-0.6l0.4-3.8c0.4,0.2,0.8,0.3,1.4,0.4c0.5,0.1,1.1,0.2,1.6,0.2
		c0.9,0,1.6-0.2,2.2-0.7s1.2-1.4,1.8-2.9l-10.4-21.2h4.8l7.6,16.4l7.2-16.4h4.7l-10,21.6c-0.6,1.3-1.2,2.4-1.7,3.3s-1.1,1.6-1.7,2.2
		s-1.2,1-1.9,1.2C541.6,334.3,540.8,334.5,540,334.5z"/>
	<path class="st0" d="M561.2,334.2v-28.4h11.9c1.3,0,2.5,0.3,3.5,0.8s2,1.2,2.8,2.1s1.4,1.9,1.8,3c0.4,1.1,0.7,2.2,0.7,3.4
		c0,1.2-0.2,2.4-0.6,3.5c-0.4,1.1-1,2.1-1.7,3s-1.6,1.6-2.7,2.1c-1.1,0.5-2.2,0.8-3.5,0.8h-7.7v9.9h-4.5V334.2z M565.7,320.3h7.4
		c0.6,0,1.2-0.1,1.7-0.4s1-0.6,1.3-1.1c0.4-0.5,0.7-1,0.9-1.7c0.2-0.6,0.3-1.3,0.3-2.1c0-0.8-0.1-1.5-0.4-2.2
		c-0.2-0.6-0.6-1.2-1-1.7s-0.9-0.8-1.5-1.1c-0.5-0.3-1.1-0.4-1.7-0.4h-7.2v10.7H565.7z"/>
	<path class="st0" d="M586.2,305.8h4.5V316h5.8c1.4,0,2.7,0.2,3.9,0.6s2.2,1,3.1,1.7c0.9,0.8,1.5,1.7,2,2.8c0.5,1.1,0.7,2.4,0.7,3.9
		s-0.2,2.8-0.7,3.9s-1.2,2.1-2,2.8c-0.9,0.8-1.9,1.3-3,1.7c-1.2,0.4-2.4,0.6-3.8,0.6h-10.4L586.2,305.8L586.2,305.8z M590.8,330.3
		h5.6c1.8,0,3.1-0.5,4-1.4s1.3-2.2,1.3-3.8c0-1.6-0.5-2.9-1.4-3.8c-0.9-1-2.2-1.4-3.9-1.4h-5.6L590.8,330.3L590.8,330.3z
		 M609.6,334.2v-28.4h4.5v28.4H609.6z"/>
</g>
</svg>
