<?xml version="1.0" encoding="utf-8"?>
<!-- Generator: Adobe Illustrator 21.1.0, SVG Export Plug-In . SVG Version: 6.00 Build 0)  -->
<svg version="1.1" id="Layer_1" xmlns="http://www.w3.org/2000/svg" xmlns:xlink="http://www.w3.org/1999/xlink" x="0px" y="0px"
	 viewBox="0 0 32.7 35" style="enable-background:new 0 0 32.7 35;" xml:space="preserve">
<style type="text/css">
	.st0{fill:#010101;}
</style>
<g>
	<path id="phone" class="st0" d="M25.1,35c-1.3,0-2.3-0.2-3.3-0.5c-0.7-0.2-1.4-0.5-2.1-0.8c-0.6-0.3-1.3-0.5-1.9-0.8
		c-0.6-0.3-1.1-0.5-1.7-0.8c-0.4-0.2-0.9-0.5-1.3-0.8c-0.8-0.5-1.5-1.1-2.3-1.7c-0.6-0.5-1.2-1-1.8-1.6c-0.8-0.8-1.6-1.6-2.4-2.5
		c-0.5-0.5-1-1.1-1.4-1.6c-0.7-0.8-1.3-1.6-1.9-2.5c-0.5-0.7-1-1.4-1.4-2.2c-0.8-1.4-1.4-2.9-2-4.5c-0.2-0.7-0.5-1.4-0.7-2.1
		c-0.4-1.3-0.8-2.6-0.8-3.9c0-1.2,0.2-2.3,0.5-3.4c0.4-1.2,1-2.4,1.8-3.4c0.5-0.7,1.1-1.2,1.9-1.4C5.1,0.3,5.8,0.1,6.5,0
		C7.4,0,7.8,0.2,8.1,0.9c0.3,0.6,0.6,1.2,0.9,1.8c0.5,1.1,1.1,2.1,1.6,3.2c0.2,0.3,0.4,0.6,0.6,0.9c0.2,0.3,0.3,0.5,0.5,0.8
		c0.3,0.6,0.2,1.2-0.2,1.7c-0.4,0.4-0.7,0.8-1.1,1.2c-0.6,0.6-1.3,1.1-1.9,1.7c-0.2,0.2-0.4,0.5-0.6,0.8c-0.3,0.4-0.2,0.8,0,1.2
		c0.1,0.3,0.3,0.6,0.4,0.9c0.6,1,1.2,2.1,1.8,3.1c0.3,0.5,0.6,0.9,1,1.4c0.7,0.9,1.4,1.8,2.2,2.6c0.5,0.4,0.9,0.9,1.4,1.3
		c0.5,0.4,1,0.8,1.6,1.2c0.4,0.3,0.8,0.5,1.2,0.8c0.5,0.3,1,0.7,1.5,1c0.3,0.2,0.7,0.3,1.1,0.4c0.4,0.1,0.7-0.1,0.9-0.4
		c0.5-0.5,0.9-1.1,1.4-1.6c0.4-0.4,0.7-0.9,1.1-1.4c0.3-0.3,0.6-0.6,0.9-0.9c0.4-0.3,0.9-0.3,1.3-0.1c0.3,0.2,0.6,0.4,1,0.6
		c0.8,0.5,1.5,1,2.3,1.4c0.9,0.6,1.9,1.1,2.8,1.7c0.3,0.2,0.5,0.4,0.8,0.5c0.3,0.2,0.4,0.6,0.4,1c-0.1,0.8-0.2,1.6-0.4,2.4
		c-0.1,0.7-0.4,1.4-0.9,1.9c-0.1,0.1-0.1,0.1-0.2,0.2c-0.5,0.5-1.1,1-1.7,1.3c-0.5,0.3-1.1,0.6-1.6,0.9C27,34.9,25.9,35,25.1,35z"/>
</g>
</svg>
