<?xml version="1.0" encoding="utf-8"?>
<!-- Generator: Adobe Illustrator 21.1.0, SVG Export Plug-In . SVG Version: 6.00 Build 0)  -->
<svg version="1.1" id="Layer_1" xmlns="http://www.w3.org/2000/svg" xmlns:xlink="http://www.w3.org/1999/xlink" x="0px" y="0px"
	 viewBox="0 0 40 40" style="enable-background:new 0 0 40 40;" xml:space="preserve">
<style type="text/css">
	.st0{fill:#3F78B9;}
</style>
<path id="vk" class="st0" d="M39.9,20c0,5.7,0,11.4,0,17c0,1.9-0.9,2.9-2.8,2.9c-11.4,0-22.8,0-34.2,0c-1.8,0-2.8-1-2.8-2.8
	c0-11.4,0-22.9,0-34.3c0-1.7,1-2.8,2.7-2.8c11.5,0,22.9,0,34.4,0c1.7,0,2.7,1,2.7,2.8C39.9,8.6,39.9,14.3,39.9,20
	C39.9,20,39.9,20,39.9,20z M22.4,17.3C22.4,17.3,22.3,17.3,22.4,17.3c0-1.1,0-2.2,0-3.3c0-0.7-0.3-0.9-1-0.9c-1.8,0-3.6,0-5.3,0
	c-0.3,0-0.7-0.1-0.9,0.3c-0.2,0.4,0.1,0.7,0.3,0.9c0.5,0.6,0.9,1.3,0.9,2.1c0,1.8,0,3.6,0,5.3c0,0.8-0.4,0.9-1.1,0.5
	c-0.5-0.4-0.9-0.9-1.3-1.4c-1.5-2-2.5-4.2-3.3-6.5c-0.2-0.7-0.6-1.2-1.4-1.3c-1.3,0-2.5,0-3.8,0c-0.6,0-0.8,0.5-0.7,1.1
	c0.9,3.6,2.8,6.7,4.9,9.6c1.7,2.3,3.8,4.3,6.5,5.3c1.5,0.6,3.2,0.8,4.9,0.6c1-0.2,1.3-0.4,1.3-1.4c0-0.9,0-1.7,0-2.6
	c0-0.7,0.3-0.9,1-0.8c0.4,0.1,0.8,0.3,1.1,0.5c1.4,1,2.5,2.2,3.7,3.4c0.5,0.5,1,0.9,1.8,0.9c1.2,0,2.3,0,3.5,0
	c0.8,0,1.1-0.4,0.8-1.2c-0.2-0.6-0.6-1.2-1-1.6c-1.1-1.2-2.2-2.4-3.3-3.6c-1.2-1.2-1.2-1.2-0.2-2.6c0.6-0.9,1.2-1.8,1.8-2.7
	c0.7-1.2,1.5-2.3,2-3.6c0.3-0.9,0-1.3-0.9-1.3c-1,0-2.1,0-3.1,0c-0.7,0-1.1,0.3-1.4,0.9c-0.4,0.9-0.9,1.8-1.4,2.6
	c-1,1.5-1.9,3-3.2,4.2c-0.2,0.2-0.4,0.4-0.8,0.3c-0.4-0.1-0.3-0.5-0.3-0.7C22.4,19.3,22.4,18.3,22.4,17.3z"/>
</svg>
